<svg id="visual" viewBox="0 0 960 540" width="960" height="540" xmlns="http://www.w3.org/2000/svg" xmlns:xlink="http://www.w3.org/1999/xlink" version="1.1"><rect x="0" y="0" width="960" height="540" fill="#101820"></rect><path d="M0 227L22.8 249.2C45.7 271.3 91.3 315.7 137 335C182.7 354.3 228.3 348.7 274 335.3C319.7 322 365.3 301 411.2 288.2C457 275.3 503 270.7 548.8 273.3C594.7 276 640.3 286 686 301.3C731.7 316.7 777.3 337.3 823 342.2C868.7 347 914.3 336 937.2 330.5L960 325L960 541L937.2 541C914.3 541 868.7 541 823 541C777.3 541 731.7 541 686 541C640.3 541 594.7 541 548.8 541C503 541 457 541 411.2 541C365.3 541 319.7 541 274 541C228.3 541 182.7 541 137 541C91.3 541 45.7 541 22.8 541L0 541Z" fill="#ffef73"></path><path d="M0 385L22.8 382C45.7 379 91.3 373 137 364.7C182.7 356.3 228.3 345.7 274 331.8C319.7 318 365.3 301 411.2 303C457 305 503 326 548.8 341.2C594.7 356.3 640.3 365.7 686 372.2C731.7 378.7 777.3 382.3 823 383C868.7 383.7 914.3 381.3 937.2 380.2L960 379L960 541L937.2 541C914.3 541 868.7 541 823 541C777.3 541 731.7 541 686 541C640.3 541 594.7 541 548.8 541C503 541 457 541 411.2 541C365.3 541 319.7 541 274 541C228.3 541 182.7 541 137 541C91.3 541 45.7 541 22.8 541L0 541Z" fill="#ffec5c"></path><path d="M0 406L22.8 396.3C45.7 386.7 91.3 367.3 137 356C182.7 344.7 228.3 341.3 274 346.2C319.7 351 365.3 364 411.2 365.7C457 367.3 503 357.7 548.8 348.5C594.7 339.3 640.3 330.7 686 327C731.7 323.3 777.3 324.7 823 325.8C868.7 327 914.3 328 937.2 328.5L960 329L960 541L937.2 541C914.3 541 868.7 541 823 541C777.3 541 731.7 541 686 541C640.3 541 594.7 541 548.8 541C503 541 457 541 411.2 541C365.3 541 319.7 541 274 541C228.3 541 182.7 541 137 541C91.3 541 45.7 541 22.8 541L0 541Z" fill="#feea40"></path><path d="M0 418L22.8 415.7C45.7 413.3 91.3 408.7 137 410.7C182.7 412.7 228.3 421.3 274 410.5C319.7 399.7 365.3 369.3 411.2 370.7C457 372 503 405 548.8 410.2C594.7 415.3 640.3 392.7 686 385.7C731.7 378.7 777.3 387.3 823 396.5C868.7 405.7 914.3 415.3 937.2 420.2L960 425L960 541L937.2 541C914.3 541 868.7 541 823 541C777.3 541 731.7 541 686 541C640.3 541 594.7 541 548.8 541C503 541 457 541 411.2 541C365.3 541 319.7 541 274 541C228.3 541 182.7 541 137 541C91.3 541 45.7 541 22.8 541L0 541Z" fill="#fee715"></path><path d="M0 383L22.8 384.7C45.7 386.3 91.3 389.7 137 395.2C182.7 400.7 228.3 408.3 274 415.2C319.7 422 365.3 428 411.2 424.7C457 421.3 503 408.7 548.8 402.2C594.7 395.7 640.3 395.3 686 394.7C731.7 394 777.3 393 823 390.7C868.7 388.3 914.3 384.7 937.2 382.8L960 381L960 541L937.2 541C914.3 541 868.7 541 823 541C777.3 541 731.7 541 686 541C640.3 541 594.7 541 548.8 541C503 541 457 541 411.2 541C365.3 541 319.7 541 274 541C228.3 541 182.7 541 137 541C91.3 541 45.7 541 22.8 541L0 541Z" fill="#e7d312"></path><path d="M0 427L22.8 430.5C45.7 434 91.3 441 137 447.8C182.7 454.7 228.3 461.3 274 459.3C319.7 457.3 365.3 446.7 411.2 439.8C457 433 503 430 548.8 434.7C594.7 439.3 640.3 451.7 686 451.8C731.7 452 777.3 440 823 433.2C868.7 426.3 914.3 424.7 937.2 423.8L960 423L960 541L937.2 541C914.3 541 868.7 541 823 541C777.3 541 731.7 541 686 541C640.3 541 594.7 541 548.8 541C503 541 457 541 411.2 541C365.3 541 319.7 541 274 541C228.3 541 182.7 541 137 541C91.3 541 45.7 541 22.8 541L0 541Z" fill="#d1bf0f"></path><path d="M0 508L22.8 504.7C45.7 501.3 91.3 494.7 137 493.3C182.7 492 228.3 496 274 501C319.7 506 365.3 512 411.2 506C457 500 503 482 548.8 478.2C594.7 474.3 640.3 484.7 686 489.3C731.7 494 777.3 493 823 492.8C868.7 492.7 914.3 493.3 937.2 493.7L960 494L960 541L937.2 541C914.3 541 868.7 541 823 541C777.3 541 731.7 541 686 541C640.3 541 594.7 541 548.8 541C503 541 457 541 411.2 541C365.3 541 319.7 541 274 541C228.3 541 182.7 541 137 541C91.3 541 45.7 541 22.8 541L0 541Z" fill="#bbab0c"></path></svg>