<svg id="visual" viewBox="0 0 960 540" width="960" height="540" xmlns="http://www.w3.org/2000/svg" xmlns:xlink="http://www.w3.org/1999/xlink" version="1.1"><path d="M0 141L22.8 126.7C45.7 112.3 91.3 83.7 137 83.7C182.7 83.7 228.3 112.3 274 122.2C319.7 132 365.3 123 411.2 108.7C457 94.3 503 74.7 548.8 72C594.7 69.3 640.3 83.7 686 89C731.7 94.3 777.3 90.7 823 88.8C868.7 87 914.3 87 937.2 87L960 87L960 0L937.2 0C914.3 0 868.7 0 823 0C777.3 0 731.7 0 686 0C640.3 0 594.7 0 548.8 0C503 0 457 0 411.2 0C365.3 0 319.7 0 274 0C228.3 0 182.7 0 137 0C91.3 0 45.7 0 22.8 0L0 0Z" fill="#101820"></path><path d="M0 325L22.8 305.2C45.7 285.3 91.3 245.7 137 231.3C182.7 217 228.3 228 274 245.2C319.7 262.3 365.3 285.7 411.2 282.8C457 280 503 251 548.8 247.3C594.7 243.7 640.3 265.3 686 273.5C731.7 281.7 777.3 276.3 823 288C868.7 299.7 914.3 328.3 937.2 342.7L960 357L960 85L937.2 85C914.3 85 868.7 85 823 86.8C777.3 88.7 731.7 92.3 686 87C640.3 81.7 594.7 67.3 548.8 70C503 72.7 457 92.3 411.2 106.7C365.3 121 319.7 130 274 120.2C228.3 110.3 182.7 81.7 137 81.7C91.3 81.7 45.7 110.3 22.8 124.7L0 139Z" fill="#006167"></path><path d="M0 449L22.8 428.3C45.7 407.7 91.3 366.3 137 342C182.7 317.7 228.3 310.3 274 314.8C319.7 319.3 365.3 335.7 411.2 338.5C457 341.3 503 330.7 548.8 338.8C594.7 347 640.3 374 686 382C731.7 390 777.3 379 823 383.5C868.7 388 914.3 408 937.2 418L960 428L960 355L937.2 340.7C914.3 326.3 868.7 297.7 823 286C777.3 274.3 731.7 279.7 686 271.5C640.3 263.3 594.7 241.7 548.8 245.3C503 249 457 278 411.2 280.8C365.3 283.7 319.7 260.3 274 243.2C228.3 226 182.7 215 137 229.3C91.3 243.7 45.7 283.3 22.8 303.2L0 323Z" fill="#45af68"></path><path d="M0 541L22.8 541C45.7 541 91.3 541 137 541C182.7 541 228.3 541 274 541C319.7 541 365.3 541 411.2 541C457 541 503 541 548.8 541C594.7 541 640.3 541 686 541C731.7 541 777.3 541 823 541C868.7 541 914.3 541 937.2 541L960 541L960 426L937.2 416C914.3 406 868.7 386 823 381.5C777.3 377 731.7 388 686 380C640.3 372 594.7 345 548.8 336.8C503 328.7 457 339.3 411.2 336.5C365.3 333.7 319.7 317.3 274 312.8C228.3 308.3 182.7 315.7 137 340C91.3 364.3 45.7 405.7 22.8 426.3L0 447Z" fill="#fee715"></path></svg>